# xmcd
#
# Track frame offsets: 
#        183
#        18483
#        34358
#        53283
#        75383
#        98645
#        117720
#        136995
#        155195
#        173733
#        193470
#        216995
#        235533
#        253158
#        269083
#
# Disc length: 3875 seconds
#
# Revision: 1
# Processed by: cddbd v1.5.2PL0 Copyright (c) Steve Scherf et al.
# Submitted via: ExactAudioCopyFreeDBPlugin 1.0
#
DISCID=d80f210f
DTITLE=Norman Beaker Band - Into The Blues
DYEAR=1994
DGENRE=Blues
TTITLE0=Cross Me Off Your List
TTITLE1=Modern Days, Lonely Nights
TTITLE2=Doctor, Doctor
TTITLE3=No Feeling In This Love Anymore
TTITLE4=Break It Down
TTITLE5=Time Will Tell
TTITLE6=No Reason To Believe In Me
TTITLE7=New Home
TTITLE8=That's Unnatural
TTITLE9=Ain't The Truth Bad Enough
TTITLE10=Loaded For Bears
TTITLE11=Treat Your Woman Right
TTITLE12=Into The Blues
TTITLE13=Cry To Me
TTITLE14=Poor Wages
EXTD=
EXTT0=
EXTT1=
EXTT2=
EXTT3=
EXTT4=
EXTT5=
EXTT6=
EXTT7=
EXTT8=
EXTT9=
EXTT10=
EXTT11=
EXTT12=
EXTT13=
EXTT14=
PLAYORDER=
